# xmcd
#
# Track frame offsets: 
#        150
#        42087
#        75645
#        101559
#        157142
#        185227
#        213095
#        253103
#
# Disc length: 4440 seconds
#
# Revision: 1
# Processed by: cddbd v1.5.2PL0 Copyright (c) Steve Scherf et al.
# Submitted via: ExactAudioCopy v0.95b4
#
DISCID=69115608
DTITLE=Dexter Gordon - Doin' Allright
DYEAR=1961
DGENRE=Jazz
TTITLE0=I Was Doing All Right
TTITLE1=You've Changed
TTITLE2=For Regulars Only
TTITLE3=Society Red
TTITLE4=It's You Or No One
TTITLE5=I Want More
TTITLE6=For Regulars Only (alternate take)
TTITLE7=Data
EXTD=YEAR: 2004
EXTT0=
EXTT1=
EXTT2=
EXTT3=
EXTT4=
EXTT5=
EXTT6=
EXTT7=
PLAYORDER=
